<svg width="712" height="275" viewBox="0 0 712 275" fill="none" xmlns="http://www.w3.org/2000/svg">
<path d="M191.872 181.452C184.469 177.421 181.123 180.78 178.436 177.421C175.749 174.062 185.839 165.329 165.645 156.556C165.645 156.556 164.302 137.745 136.691 137.02C109.08 136.294 116.537 155.83 109.08 160.586C101.623 165.343 99.6748 157.899 92.2448 162.615C84.8147 167.331 88.214 176.75 82.141 178.093C76.0679 179.437 68.0064 172.034 60.6435 176.75C53.2806 181.466 53.2269 185.51 49.8948 185.51C46.5627 185.51 39.791 182.823 35.7468 185.51C31.7026 188.197 27 191.569 27 191.569H197.26C197.26 191.569 199.302 185.496 191.872 181.452Z" stroke="#999999" stroke-linecap="round" stroke-linejoin="round"/>
<path d="M91.1029 178.684C90.1313 179.223 89.126 179.699 88.0933 180.109" stroke="#999999" stroke-linecap="round" stroke-linejoin="round"/>
<path d="M127.541 147.231C125.869 147.978 124.4 149.114 123.257 150.545C122.114 151.975 121.33 153.658 120.971 155.454C119.734 161.607 116.859 165.719 113.567 166.202C110.276 166.686 97.9549 165.316 95.8454 169.83C95.2992 171.155 94.9113 172.539 94.6899 173.955" stroke="#999999" stroke-linecap="round" stroke-linejoin="round"/>
<path d="M188.338 254.396C185.651 252.918 184.388 254.14 183.408 252.918C182.427 251.695 186.095 248.471 178.732 245.273C178.732 245.273 178.235 238.38 168.131 238.125C158.027 237.87 160.741 245.031 158.027 246.751C155.313 248.471 154.587 245.77 151.873 247.49C149.159 249.21 150.395 252.663 148.179 253.16C145.962 253.657 143.006 250.943 140.292 252.663C137.578 254.382 137.604 255.874 136.355 255.874C135.105 255.874 132.66 254.879 131.182 255.874C129.704 256.868 127.984 258.091 127.984 258.091H190.3C190.474 257.342 190.372 256.555 190.011 255.876C189.651 255.197 189.056 254.671 188.338 254.396Z" stroke="#999999" stroke-linecap="round" stroke-linejoin="round"/>
<path d="M151.47 253.375C151.117 253.578 150.749 253.753 150.369 253.899" stroke="#999999" stroke-linecap="round" stroke-linejoin="round"/>
<path d="M164.799 241.874C164.186 242.146 163.648 242.562 163.23 243.086C162.811 243.609 162.525 244.226 162.394 244.883C161.937 247.127 160.889 248.632 159.706 248.78C158.524 248.927 153.996 248.484 153.244 250.123C153.047 250.612 152.907 251.121 152.827 251.641" stroke="#999999" stroke-linecap="round" stroke-linejoin="round"/>
<path d="M681.354 177.278C678.667 175.8 677.404 177.022 676.423 175.8C675.442 174.577 679.11 171.352 671.747 168.155C671.747 168.155 671.25 161.262 661.147 161.007C651.043 160.751 653.757 167.913 651.043 169.633C648.329 171.352 647.603 168.652 644.889 170.371C642.175 172.091 643.411 175.544 641.194 176.041C638.977 176.539 636.021 173.825 633.307 175.544C630.593 177.264 630.62 178.755 629.371 178.755C628.121 178.755 625.676 177.761 624.198 178.755C622.72 179.75 621 180.972 621 180.972H683.316C683.49 180.223 683.387 179.437 683.027 178.758C682.666 178.079 682.072 177.553 681.354 177.278Z" stroke="#999999" stroke-linecap="round" stroke-linejoin="round"/>
<path d="M644.486 176.256C644.133 176.46 643.765 176.635 643.384 176.78" stroke="#999999" stroke-linecap="round" stroke-linejoin="round"/>
<path d="M657.814 164.755C657.202 165.028 656.664 165.444 656.245 165.967C655.827 166.491 655.54 167.108 655.409 167.765C654.952 170.009 653.904 171.514 652.722 171.661C651.54 171.809 647.012 171.366 646.259 173.005C646.063 173.493 645.923 174.003 645.843 174.523" stroke="#999999" stroke-linecap="round" stroke-linejoin="round"/>
<path d="M5 49.4715C5 49.4715 315.316 147.921 711.063 46" stroke="#263238" stroke-linecap="round" stroke-linejoin="round"/>
<path d="M88.4592 102.543C93.1517 99.0176 94.0975 92.3554 90.5718 87.6629C87.046 82.9704 80.3838 82.0246 75.6913 85.5504C70.9988 89.0762 70.053 95.7384 73.5788 100.431C77.1046 105.123 83.7668 106.069 88.4592 102.543Z" fill="white" stroke="#263238" stroke-linecap="round" stroke-linejoin="round"/>
<path d="M84.5631 74.4394L85.151 74.5229C86.4983 74.7141 87.7145 75.4328 88.5319 76.5208C89.3494 77.6087 89.7012 78.9769 89.5099 80.3242L88.7053 85.9923L77.9571 84.4664L78.7596 78.8134C78.8525 78.1447 79.0765 77.501 79.4186 76.919C79.7608 76.337 80.2144 75.8283 80.7535 75.4219C81.2927 75.0156 81.9067 74.7197 82.5604 74.5511C83.2141 74.3825 83.8947 74.3445 84.5631 74.4394Z" fill="#263238" stroke="#263238" stroke-linecap="round" stroke-linejoin="round"/>
<path d="M78.7842 67.4074C78.7842 67.4074 84.8745 69.8435 85.9707 74.6396C87.0219 72.5155 88.7604 70.8091 90.9039 69.7979" stroke="#263238" stroke-linecap="round" stroke-linejoin="round"/>
<path d="M203.43 118.258C207.809 114.349 208.189 107.631 204.28 103.253C200.371 98.8745 193.652 98.4942 189.274 102.403C184.896 106.312 184.516 113.031 188.425 117.409C192.334 121.787 199.052 122.167 203.43 118.258Z" fill="white" stroke="#263238" stroke-linecap="round" stroke-linejoin="round"/>
<path d="M197.395 90.6045L197.987 90.6448C199.345 90.7371 200.61 91.365 201.505 92.3903C202.4 93.4156 202.851 94.7544 202.758 96.1121L202.37 101.824L191.539 101.087L191.927 95.3756C191.973 94.7034 192.151 94.0467 192.45 93.4431C192.75 92.8395 193.165 92.3008 193.673 91.8577C194.181 91.4147 194.77 91.076 195.409 90.8609C196.048 90.6459 196.722 90.5588 197.395 90.6045Z" fill="#263238" stroke="#263238" stroke-linecap="round" stroke-linejoin="round"/>
<path d="M191.18 83.9882C191.18 83.9882 197.499 85.9828 198.884 90.6876C199.778 88.4917 201.388 86.6621 203.452 85.4956" stroke="#263238" stroke-linecap="round" stroke-linejoin="round"/>
<path d="M304.673 117.47C304.63 119.579 303.962 121.629 302.753 123.359C301.544 125.089 299.849 126.42 297.882 127.186C295.916 127.951 293.766 128.115 291.706 127.657C289.646 127.2 287.768 126.141 286.31 124.615C284.853 123.089 283.881 121.164 283.518 119.085C283.155 117.006 283.418 114.867 284.272 112.937C285.127 111.008 286.535 109.375 288.318 108.247C290.102 107.118 292.18 106.545 294.289 106.598C297.105 106.67 299.779 107.854 301.725 109.891C303.67 111.928 304.73 114.653 304.673 117.47V117.47Z" fill="white" stroke="#263238" stroke-linecap="round" stroke-linejoin="round"/>
<path d="M294.195 97.4542L294.835 97.4687C295.508 97.484 296.172 97.6318 296.789 97.9037C297.405 98.1757 297.962 98.5664 298.428 99.0535C298.893 99.5407 299.258 100.115 299.502 100.743C299.746 101.371 299.863 102.041 299.848 102.715L299.718 108.438L288.865 108.192L288.995 102.469C289.026 101.116 289.589 99.8302 290.563 98.8911C291.537 97.952 292.843 97.4356 294.195 97.4542Z" fill="#263238" stroke="#263238" stroke-linecap="round" stroke-linejoin="round"/>
<path d="M287.636 91.1596C287.636 91.1596 294.031 92.8496 295.629 97.4935C296.416 95.2577 297.941 93.3567 299.953 92.1036" stroke="#263238" stroke-linecap="round" stroke-linejoin="round"/>
<path d="M414.999 116.769C415.076 118.881 414.525 120.967 413.414 122.764C412.304 124.562 410.684 125.988 408.761 126.863C406.838 127.738 404.698 128.021 402.614 127.677C400.529 127.334 398.594 126.378 397.053 124.932C395.513 123.486 394.437 121.615 393.963 119.556C393.488 117.498 393.636 115.344 394.387 113.37C395.139 111.396 396.46 109.689 398.184 108.467C399.907 107.245 401.955 106.563 404.067 106.507C406.873 106.433 409.596 107.469 411.642 109.391C413.689 111.312 414.895 113.964 414.999 116.769Z" fill="white" stroke="#263238" stroke-linecap="round" stroke-linejoin="round"/>
<path d="M403.461 97.367L404.055 97.3472C405.415 97.3018 406.737 97.7986 407.731 98.7283C408.725 99.6579 409.309 100.944 409.354 102.304L409.545 108.026L398.695 108.388L398.504 102.666C398.459 101.306 398.955 99.9837 399.885 98.9899C400.815 97.9961 402.101 97.4123 403.461 97.367Z" fill="#263238" stroke="#263238" stroke-linecap="round" stroke-linejoin="round"/>
<path d="M396.561 91.4489C396.561 91.4489 403.031 92.7887 404.889 97.3412C405.55 95.0612 406.967 93.0742 408.909 91.7077" stroke="#263238" stroke-linecap="round" stroke-linejoin="round"/>
<path d="M530.623 106.005C530.965 108.087 530.681 110.225 529.807 112.146C528.932 114.067 527.507 115.685 525.712 116.796C523.917 117.906 521.833 118.458 519.724 118.383C517.614 118.307 515.575 117.607 513.864 116.371C512.153 115.135 510.848 113.418 510.114 111.439C509.379 109.461 509.249 107.308 509.739 105.255C510.23 103.202 511.319 101.341 512.868 99.908C514.417 98.4746 516.358 97.5336 518.442 97.2042C521.223 96.7647 524.065 97.4436 526.348 99.0925C528.63 100.741 530.167 103.226 530.623 106.005Z" fill="white" stroke="#263238" stroke-linecap="round" stroke-linejoin="round"/>
<path d="M516.667 88.2634L517.253 88.1685C518.597 87.9512 519.971 88.2764 521.075 89.0727C522.179 89.8689 522.921 91.0709 523.138 92.4143L524.052 98.0657L513.381 99.7922L512.466 94.1408C512.25 92.8052 512.57 91.4383 513.357 90.3375C514.144 89.2368 515.333 88.4913 516.667 88.2634V88.2634Z" fill="#263238" stroke="#263238" stroke-linecap="round" stroke-linejoin="round"/>
<path d="M509.063 83.227C509.063 83.227 515.671 83.7294 518.077 88.0078C518.45 85.6665 519.604 83.5201 521.351 81.9175" stroke="#263238" stroke-linecap="round" stroke-linejoin="round"/>
<path d="M637.758 100.075C643.153 97.763 645.651 91.5152 643.339 86.1204C641.027 80.7256 634.779 78.2267 629.384 80.5389C623.99 82.8511 621.491 89.0989 623.803 94.4937C626.115 99.8885 632.363 102.387 637.758 100.075Z" fill="white" stroke="#263238" stroke-linecap="round" stroke-linejoin="round"/>
<path d="M629.288 71.0485L629.87 70.9283C630.536 70.7905 631.223 70.7866 631.89 70.9167C632.558 71.0468 633.193 71.3084 633.759 71.6863C634.325 72.0642 634.81 72.5507 635.185 73.1177C635.561 73.6847 635.821 74.3208 635.949 74.9889L637.108 80.5953L626.476 82.793L625.317 77.1867C625.17 76.5226 625.156 75.8358 625.276 75.1662C625.396 74.4967 625.649 73.8577 626.018 73.2865C626.388 72.7154 626.867 72.2233 627.428 71.8391C627.99 71.4549 628.622 71.1862 629.288 71.0485V71.0485Z" fill="#263238" stroke="#263238" stroke-linecap="round" stroke-linejoin="round"/>
<path d="M621.475 66.3416C621.475 66.3416 628.098 66.57 630.687 70.7266C630.968 68.3661 632.041 66.1707 633.732 64.4993" stroke="#263238" stroke-linecap="round" stroke-linejoin="round"/>
</svg>
