<svg width="18" height="17" viewBox="0 0 18 17" fill="none" xmlns="http://www.w3.org/2000/svg">
<path fill-rule="evenodd" clip-rule="evenodd" d="M12.2981 0.521987C12.837 0.521987 13.375 0.597996 13.8866 0.769656C17.0388 1.79449 18.1747 5.25332 17.2258 8.27659C16.6878 9.82153 15.8081 11.2315 14.656 12.3836C13.0069 13.9807 11.1972 15.3983 9.24918 16.6196L9.03567 16.7486L8.81362 16.6111C6.85874 15.3983 5.03881 13.9807 3.3743 12.3751C2.2299 11.223 1.34939 9.82153 0.802813 8.27659C-0.162242 5.25332 0.973619 1.79449 4.16001 0.751721C4.40768 0.666318 4.66303 0.606536 4.91924 0.573229H5.02172C5.26171 0.538214 5.49998 0.521987 5.73911 0.521987H5.83305C6.37109 0.538214 6.89205 0.632157 7.39678 0.803817H7.44717C7.48133 0.820044 7.50695 0.837978 7.52403 0.854205C7.71278 0.914841 7.89127 0.983164 8.06207 1.07711L8.38661 1.22229C8.46502 1.26412 8.55304 1.32802 8.62912 1.38325C8.67731 1.41824 8.72072 1.44976 8.75384 1.46996C8.76778 1.47818 8.78194 1.48645 8.79623 1.49479C8.86945 1.53754 8.94573 1.58206 9.01005 1.63137C9.95888 0.906301 11.111 0.513447 12.2981 0.521987ZM14.5696 6.671C14.9198 6.66161 15.2187 6.38063 15.2443 6.02109V5.91946C15.2699 4.72296 14.5449 3.63919 13.4423 3.22072C13.0922 3.1003 12.7078 3.28904 12.5797 3.64773C12.4602 4.00643 12.6481 4.39928 13.0068 4.52653C13.5542 4.7315 13.9206 5.27039 13.9206 5.86736V5.89384C13.9043 6.08941 13.9633 6.27815 14.0828 6.42333C14.2024 6.56852 14.3817 6.65307 14.5696 6.671Z" fill="#E22342"/>
</svg>
