<svg width="35" height="35" viewBox="0 0 35 35" fill="none" xmlns="http://www.w3.org/2000/svg">
<path opacity="0.4" d="M34.0833 26.6716C34.0833 30.7566 30.6996 34.0833 26.5424 34.0833L18.2739 34.0833C14.1252 34.0833 10.75 30.7666 10.75 26.6883L10.75 8.16162C10.75 4.07495 14.1337 0.749952 18.2926 0.749952L26.5577 0.749951C30.7081 0.749951 34.0833 4.06662 34.0833 8.14495L34.0833 9.71162L34.0833 26.6716Z" fill="#BDBDBD"/>
<path d="M1.11853 18.3252L5.86151 23.1736C6.35172 23.6736 7.14059 23.6736 7.62918 23.1702C8.11613 22.6669 8.11451 21.8552 7.62593 21.3552L5.02719 18.7002L7.5188 18.7002L21.5026 18.7002C22.1925 18.7002 22.7525 18.1252 22.7525 17.4169C22.7525 16.7069 22.1925 16.1336 21.5026 16.1336L5.02719 16.1336L7.62593 13.4786C8.11451 12.9786 8.11613 12.1669 7.62917 11.6636C7.38407 11.4119 7.0643 11.2852 6.74291 11.2852C6.42476 11.2852 6.10499 11.4119 5.86151 11.6602L1.11853 16.5069C0.883167 16.7486 0.750066 17.0752 0.750066 17.4169C0.750066 17.7569 0.883167 18.0836 1.11853 18.3252Z" fill="#BDBDBD"/>
</svg>
